#!OML:ASF E:\emotionWalksFemale\Project 1\Capture day 1\Session 1\Female1.ASF
:FULLY-SPECIFIED
:DEGREES
526
root 8.56326 15.4832 -7.51454 -181.514 -9.48682 -180.26
lowerback 6.27534 1.76519 1.66963
upperback -1.8489 2.47896 -0.312645
thorax -5.35639 1.16369 -1.52765
lowerneck -7.15508 -0.590742 -3.97266
upperneck -1.44981 -0.62053 2.44926
head 0.777261 -0.314651 1.41954
rclavicle -3.25556e-014 -2.43511e-015
rhumerus -44.2002 12.8357 -87.6298
rradius 47.8482
rwrist 16.8214
rhand -12.288 -49.9536
rfingers 7.12502
rthumb 13.7794 -79.4773
lclavicle -3.25556e-014 -2.43511e-015
lhumerus -43.037 -2.74575 88.492
lradius 36.2506
lwrist -2.61135
lhand -1.42089 -30.6793
lfingers 7.12502
lthumb 24.2287 -2.18996
rfemur -1.68558 16.055 28.6124
rtibia 22.4227
rfoot -22.4222 -35.1271
rtoes 13.2634
lfemur -5.01938 -19.3591 -26.1772
ltibia 26.7194
lfoot -22.0888 14.4932
ltoes -31.6058
527
root 8.56884 15.4848 -7.5097 -181.439 -9.63449 -180.32
lowerback 6.40631 1.77354 1.63528
upperback -1.83741 2.48793 -0.34695
thorax -5.41844 1.16795 -1.54975
lowerneck -6.97597 -0.583731 -3.80695
upperneck -1.72985 -0.633602 2.21262
head 0.655234 -0.327327 1.31292
rclavicle -3.82334e-014 -2.03754e-015
rhumerus -43.7521 12.2539 -87.7786
rradius 47.2965
rwrist 17.28
rhand -12.5265 -49.8879
rfingers 7.12502
rthumb 13.5496 -79.427
lclavicle -3.82334e-014 -2.03754e-015
lhumerus -42.9846 -3.3528 88.8838
lradius 36.2438
lwrist -3.34916
lhand -0.955988 -30.5923
lfingers 7.12502
lthumb 24.6744 -2.16315
rfemur -1.80683 16.0584 28.5618
rtibia 22.5328
rfoot -22.5307 -35.2311
rtoes 13.3597
lfemur -5.04862 -19.3725 -26.1661
ltibia 26.5723
lfoot -22.1013 14.221
ltoes -30.9689
528
root 8.57135 15.4855 -7.50905 -181.355 -9.74516 -180.441
lowerback 6.46571 1.80962 1.56713
upperback -1.77936 2.52825 -0.402309
thorax -5.39028 1.1901 -1.57429
lowerneck -7.15541 -0.568371 -3.65401
upperneck -1.73424 -0.621756 2.00068
head 0.680874 -0.326064 1.21941
rclavicle -1.88053e-014 -1.04362e-015
rhumerus -43.2543 11.571 -87.8508
rradius 46.7356
rwrist 17.7159
rhand -12.3649 -49.9384
rfingers 7.12502
rthumb 13.7053 -79.4671
lclavicle -1.88053e-014 -1.04362e-015
lhumerus -42.9381 -4.52404 89.4553
lradius 36.2716
lwrist -3.82825
lhand -1.08707 -30.8736
lfingers 7.12502
lthumb 24.5487 -2.42733
rfemur -1.88846 16.0153 28.418
rtibia 22.5748
rfoot -22.5995 -35.2444
rtoes 13.398
lfemur -5.05512 -19.3847 -26.259
ltibia 26.4812
lfoot -22.1218 14.0001
ltoes -30.1078
529
root 8.57293 15.4852 -7.51229 -181.308 -9.8754 -180.553
lowerback 6.40526 1.84556 1.46905
upperback -1.64308 2.56508 -0.426798
thorax -5.21489 1.21455 -1.54292
lowerneck -7.61605 -0.599558 -3.57894
upperneck -1.4816 -0.654369 1.85522
head 0.838193 -0.344991 1.16107
rclavicle 3.93997e-014 2.83268e-015
rhumerus -42.5173 11.0433 -87.8488
rradius 45.9485
rwrist 18.18
rhand -11.6864 -50.1589
rfingers 7.12502
rthumb 14.3592 -79.6423
lclavicle 3.93997e-014 2.83268e-015
lhumerus -42.9819 -5.73186 90.0259
lradius 36.4762
lwrist -4.15604
lhand -1.37206 -31.2268
lfingers 7.12502
lthumb 24.2755 -2.74375
rfemur -1.86745 16.0031 28.3043
rtibia 22.554
rfoot -22.8629 -35.2762
rtoes 13.9961
lfemur -5.01996 -19.5451 -26.4054
ltibia 26.4472
lfoot -22.0607 14.1562
ltoes -30.2729
530
root 8.57982 15.487 -7.50878 -181.263 -10.099 -180.469
lowerback 6.45376 1.83961 1.50591
upperback -1.56069 2.56276 -0.385071
thorax -5.15664 1.2143 -1.5199
lowerneck -7.88138 -0.62333 -3.77356
upperneck -1.37216 -0.664056 2.02171
head 0.921843 -0.347003 1.24863
rclavicle 3.62782e-014 2.5842e-015
rhumerus -41.8307 10.6895 -87.861
rradius 45.1462
rwrist 18.487
rhand -11.5449 -49.905
rfingers 7.12502
rthumb 14.4955 -79.3787
lclavicle 3.62782e-014 2.5842e-015
lhumerus -43.1243 -6.68959 90.4197
lradius 36.8346
lwrist -4.86161
lhand -1.50985 -31.826
lfingers 7.12502
lthumb 24.1434 -3.3253
rfemur -1.89482 16.1807 28.4487
rtibia 22.5202
rfoot -23.2384 -35.5485
rtoes 14.8977
lfemur -5.1164 -19.7004 -26.2679
ltibia 26.4341
lfoot -22.0376 14.2768
ltoes -31.0976
531
root 8.59041 15.4921 -7.4987 -181.109 -10.3672 -180.338
lowerback 6.48767 1.82885 1.56808
upperback -1.5241 2.55649 -0.335082
thorax -5.13748 1.21056 -1.50263
lowerneck -7.8214 -0.62169 -4.03277
upperneck -1.62715 -0.652012 2.29074
head 0.834795 -0.33832 1.37905
rclavicle -2.92198e-014 -7.95139e-016
rhumerus -41.2826 10.5262 -87.9613
rradius 44.5149
rwrist 18.0994
rhand -12.5614 -49.4165
rfingers 7.12502
rthumb 13.516 -78.9578
lclavicle -2.92198e-014 -7.95139e-016
lhumerus -43.1259 -7.80921 90.7989
lradius 37.2068
lwrist -5.43591
lhand -1.74063 -32.9916
lfingers 7.12502
lthumb 23.9221 -4.46174
rfemur -2.09398 16.3898 28.6135
rtibia 22.4697
rfoot -23.3634 -35.9077
rtoes 15.1973
lfemur -5.44401 -19.7896 -25.975
ltibia 26.4501
lfoot -22.0275 14.0917
ltoes -31.3404
532
root 8.59658 15.4964 -7.49225 -180.901 -10.6067 -180.404
lowerback 6.36975 1.84684 1.46255
upperback -1.47642 2.56951 -0.333092
thorax -5.02485 1.2221 -1.43703
lowerneck -7.84282 -0.705697 -3.84495
upperneck -1.80164 -0.784082 1.99881
head 0.782666 -0.412031 1.24809
rclavicle -2.30978e-014 -7.95139e-016
rhumerus -40.7272 10.3435 -88.001
rradius 43.8654
rwrist 17.8293
rhand -13.3797 -49.0557
rfingers 7.12502
rthumb 12.7272 -78.6478
lclavicle -2.30978e-014 -7.95139e-016
lhumerus -42.9894 -8.91325 91.0938
lradius 37.4346
lwrist -5.79556
lhand -2.0977 -34.1764
lfingers 7.12502
lthumb 23.5797 -5.60205
rfemur -2.28276 16.4336 28.5162
rtibia 22.3943
rfoot -23.4108 -36.0684
rtoes 15.6982
lfemur -5.76351 -19.8925 -25.9286
ltibia 26.4937
lfoot -21.9319 13.9516
ltoes -31.5403
533
root 8.59907 15.4977 -7.49042 -180.779 -10.8016 -180.503
lowerback 6.32866 1.87939 1.36085
upperback -1.47607 2.60311 -0.349728
thorax -5.00371 1.24181 -1.39919
lowerneck -7.5514 -0.647276 -3.66605
upperneck -1.97505 -0.72927 1.69675
head 0.672208 -0.389657 1.12168
rclavicle -3.63823e-014 3.8763e-015
rhumerus -40.2144 10.0001 -87.9386
rradius 43.1709
rwrist 18.0638
rhand -13.1191 -49.0002
rfingers 7.12502
rthumb 12.9784 -78.5765
lclavicle -3.63823e-014 3.8763e-015
lhumerus -42.8046 -9.67561 91.1624
lradius 37.2959
lwrist -6.2718
lhand -2.5489 -34.9607
lfingers 7.12502
lthumb 23.1468 -6.33126
rfemur -2.34709 16.4148 28.3974
rtibia 22.3525
rfoot -23.6773 -36.0868
rtoes 16.9235
lfemur -5.91023 -20.0032 -25.9792
ltibia 26.5085
lfoot -21.9435 13.8023
ltoes -31.2027
534
root 8.60196 15.4986 -7.49098 -180.697 -10.9961 -180.517
lowerback 6.28155 1.91219 1.33727
upperback -1.49395 2.64403 -0.356884
thorax -4.99506 1.26269 -1.39615
lowerneck -7.41385 -0.603975 -3.71686
upperneck -1.87052 -0.664215 1.801
head 0.681474 -0.352682 1.16559
rclavicle 2.00928e-014 -3.47873e-016
rhumerus -39.7157 9.88345 -87.9386
rradius 42.4562
rwrist 18.0091
rhand -12.8592 -48.8924
rfingers 7.12502
rthumb 13.2289 -78.4526
lclavicle 2.00928e-014 -3.47873e-016
lhumerus -42.6222 -10.352 91.1561
lradius 37.154
lwrist -6.45226
lhand -3.01555 -35.332
lfingers 7.12502
lthumb 22.699 -6.64708
rfemur -2.40223 16.4992 28.3956
rtibia 22.3371
rfoot -23.8914 -36.2904
rtoes 17.0172
lfemur -6.00982 -20.1275 -25.9468
ltibia 26.5037
lfoot -22.0083 13.6226
ltoes -30.5654
